<?xml version="1.0" encoding="iso-8859-1"?>
<!-- Uploaded to: SVG Repo, www.svgrepo.com, Generator: SVG Repo Mixer Tools -->
<svg fill="white" version="1.1" id="Layer_1" xmlns="http://www.w3.org/2000/svg" xmlns:xlink="http://www.w3.org/1999/xlink" 
	 viewBox="0 0 508 508" xml:space="preserve">
<g>
	<g>
		<path d="M507.2,452.65l-39.8-113.7V50.65c0-7.8-6.3-14.1-14.1-14.1H54.7c-7.8,0-14.1,6.3-14.1,14.1v288.3L0.8,452.65
			c-3.2,9.2,3.6,18.8,13.3,18.8h479.8C503.6,471.35,510.4,461.75,507.2,452.65z M68.9,64.75h370.3v262.5H68.9V64.75z M34,443.15
			l30.7-87.7h378.5l30.7,87.7H34z"/>
	</g>
</g>
<g>
	<g>
		<path d="M278.7,385.15h-49.5c-7.8,0-14.1,6.3-14.1,14.1c0,7.8,6.3,14.1,14.1,14.1h49.5c7.8,0,14.1-6.3,14.1-14.1
			C292.8,391.45,286.5,385.15,278.7,385.15z"/>
	</g>
</g>
<g>
	<g>
		<polygon points="171.1,135.05 171.1,101.75 161.8,101.75 161.8,143.35 188.9,143.35 188.9,135.05 		"/>
	</g>
</g>
<g>
	<g>
		<rect x="288.3" y="101.75" width="9.3" height="41.6"/>
	</g>
</g>
<g>
	<g>
		<polygon points="336.9,101.75 336.9,128.55 316.5,101.75 307.8,101.75 307.8,143.35 317.1,143.35 317.1,117.25 336.9,143.35 
			346.2,143.35 346.2,101.75 		"/>
	</g>
</g>
<g>
	<g>
		<path d="M374.9,178.25H133.1c-7.8,0-14.1,6.3-14.1,14.1v98.8c0,7.8,6.3,14.1,14.1,14.1h241.8c7.8,0,14.1-6.3,14.1-14.1v-98.8
			C389,184.55,382.7,178.25,374.9,178.25z M360.8,277.05H147.2v-70.6h213.6V277.05z"/>
	</g>
</g>
<g>
	<g>
		<circle cx="197.6" cy="241.75" r="14.1"/>
	</g>
</g>
<g>
	<g>
		<circle cx="254" cy="241.75" r="14.1"/>
	</g>
</g>
<g>
	<g>
		<circle cx="310.4" cy="241.75" r="14.1"/>
	</g>
</g>
<g>
	<g>
		<path d="M213.9,100.75c-12.1,0-21.8,9.6-21.8,21.5c0,11.9,9.8,21.5,21.8,21.5c12.1,0,21.9-9.6,21.9-21.5
			C235.8,110.35,226,100.75,213.9,100.75z M213.9,135.65c-6.8,0-12.4-6-12.4-13.4c0.1-7.4,5.6-13.4,12.4-13.4s12.4,6,12.4,13.4
			C226.3,129.65,220.7,135.65,213.9,135.65z"/>
	</g>
</g>
<g>
	<g>
		<path d="M270.7,122.15v10.6c-2.1,1.8-4.7,2.9-7.6,2.9c-6.8,0-12.4-6-12.4-13.4c0-7.4,5.5-13.4,12.4-13.4c4.1,0,7.7,2.2,10,5.5
			l5.2-7.5c-3.9-3.8-9.3-6.1-15.2-6.1c-12.1,0-21.8,9.6-21.8,21.5c0,11.9,9.7,21.5,21.8,21.5c6.8,0,12.8-3.1,16.8-7.9v-13.7H270.7z"
			/>
	</g>
</g>
</svg>